<svg width="399" height="152" viewBox="0 0 399 152" fill="none" xmlns="http://www.w3.org/2000/svg">
<path d="M137.284 25.2701C146.171 21.7146 148.531 10.6702 141.784 4.22226C136.267 -1.05086 130.41 -1.39095 124.79 3.23634C113.34 12.6627 123.594 30.7493 137.284 25.2667V25.2701Z" fill="#FEE600"/>
<path d="M22.8788 135.394H73.0645L70.6495 148.946H0L2.07833 137.135L63.0679 64.94H14.8953L17.3103 51.2539H86.0154L84.0024 62.7929L22.8788 135.39V135.394Z" fill="white"/>
<path d="M167.195 135.394H217.381L214.966 148.946H144.316L146.395 137.135L207.384 64.94H159.212L161.627 51.2539H230.332L228.319 62.7929L167.195 135.39V135.394Z" fill="white"/>
<path d="M248.101 135.394H298.287L295.872 148.946H225.223L227.301 137.135L288.291 64.94H240.118L242.533 51.2539H311.238L309.225 62.7929L248.101 135.39V135.394Z" fill="white"/>
<path d="M350.018 97.4208L379.809 51.2578H398.998L355.923 113.859L349.819 148.95H333.179L339.62 112.113L318.754 51.2578H336.267L350.022 97.4208H350.018Z" fill="white"/>
<path d="M130.212 38.9527C130.37 38.9527 130.511 38.9802 130.634 39.0317L130.947 39.2309H130.95C131.139 39.4061 131.225 39.6294 131.256 39.705C131.301 39.8252 131.342 39.9558 131.376 40.0898C131.445 40.3611 131.517 40.715 131.589 41.1306C131.73 41.9654 131.885 43.1128 132.036 44.4869C132.345 47.2351 132.665 50.9246 132.919 54.8923C133.242 59.894 133.52 63.5938 133.613 66.3145C133.702 69.0009 133.62 70.8937 133.135 72.1991C132.881 72.8862 132.51 73.4392 131.981 73.8583C131.466 74.2706 130.847 74.5179 130.174 74.6794C128.893 74.992 127.106 75.0538 124.939 75.2428C122.795 75.4283 120.765 75.679 119.233 75.9332C118.975 75.9745 118.735 76.0226 118.515 76.0638H118.522C119.848 76.6375 121.83 77.4173 124.32 78.3482C129.298 80.2136 136.279 82.6904 144.053 85.3184C151.84 87.9498 158.769 90.4335 163.654 92.3057C166.097 93.2435 168.041 94.0371 169.333 94.621C169.972 94.9096 170.483 95.1638 170.82 95.3699C170.968 95.4627 171.167 95.5932 171.311 95.7616C171.37 95.8303 171.548 96.0467 171.559 96.3696C171.572 96.8162 171.284 97.0876 171.067 97.2044C170.94 97.2731 170.786 97.3246 170.665 97.359C170.528 97.4002 170.367 97.4448 170.181 97.4929C169.807 97.5822 169.315 97.6853 168.728 97.8021C167.55 98.0357 165.942 98.3208 164.029 98.6437C160.198 99.2861 155.114 100.073 149.7 100.839C142.445 101.869 137.55 102.697 134.451 103.453C132.895 103.834 131.847 104.188 131.191 104.511C130.47 104.868 130.497 105.057 130.511 104.965C130.044 108.819 127.701 120.155 125.375 130.547C124.21 135.755 123.046 140.746 122.115 144.47C121.651 146.329 121.239 147.881 120.92 148.991C120.761 149.541 120.621 149.997 120.497 150.331C120.439 150.496 120.377 150.65 120.315 150.777C120.284 150.839 120.239 150.911 120.191 150.983C120.157 151.035 120.057 151.183 119.872 151.293C119.576 151.471 119.181 151.581 118.766 151.451C118.364 151.323 118.109 151.031 117.962 150.76C117.684 150.241 117.629 149.537 117.697 148.843C117.752 148.266 117.773 144.92 117.756 139.894C117.738 134.903 117.687 128.331 117.604 121.385C117.519 114.425 117.615 108.001 117.838 103.264C117.951 100.894 118.092 98.9289 118.264 97.5238C118.347 96.8265 118.443 96.2391 118.549 95.7993C118.604 95.5829 118.666 95.3734 118.748 95.1947C118.786 95.1054 118.841 95.0024 118.913 94.9027C118.982 94.8066 119.106 94.6657 119.298 94.5695L119.903 94.3394C120.143 94.2672 120.411 94.1951 120.7 94.1264C121.301 93.9821 122.063 93.8309 122.922 93.6764C124.64 93.3672 126.794 93.0443 128.968 92.7901L133.043 92.3091L107.436 83.5836C99.3976 80.8457 92.2832 78.2933 87.2986 76.3798C84.8081 75.4248 82.8362 74.6244 81.5412 74.0404C80.9022 73.7519 80.3903 73.5011 80.064 73.2984C79.93 73.216 79.7102 73.0717 79.5659 72.8793C79.504 72.8003 79.2876 72.4946 79.3907 72.0789C79.504 71.622 79.8888 71.4674 80.009 71.4262C80.1945 71.3643 80.514 71.2991 80.885 71.2304C81.2835 71.1582 81.8022 71.0655 82.4274 70.9659C83.6744 70.7632 85.3612 70.509 87.3605 70.2204C91.3626 69.6433 96.646 68.9253 102.228 68.2073L121.929 65.6721L123.695 58.513C125.519 51.086 126.797 46.1805 127.718 43.2124C128.175 41.7421 128.56 40.6909 128.896 40.0417C129.054 39.7394 129.257 39.4061 129.528 39.1932C129.679 39.0764 129.913 38.9458 130.212 38.9424V38.9527Z" fill="#FEE600"/>
</svg>
